<mxfile host="app.diagrams.net" modified="2023-06-06T16:09:49.184Z" agent="Mozilla/5.0 (Windows NT 10.0; Win64; x64) AppleWebKit/537.36 (KHTML, like Gecko) Chrome/113.0.0.0 Safari/537.36 OPR/99.0.0.0" etag="gb8LVrtihA9-xQcTtE4z" version="21.3.7" type="github">
  <diagram name="PÃ¡gina-1" id="oQpRElAgnhR7NKxCg2-n">
    <mxGraphModel dx="1394" dy="766" grid="1" gridSize="10" guides="1" tooltips="1" connect="1" arrows="1" fold="1" page="1" pageScale="1" pageWidth="827" pageHeight="1169" math="0" shadow="0">
      <root>
        <mxCell id="0" />
        <mxCell id="1" parent="0" />
        <mxCell id="utT9G9273KMaDu8NAlAD-7" style="edgeStyle=orthogonalEdgeStyle;rounded=0;orthogonalLoop=1;jettySize=auto;html=1;entryX=0.5;entryY=0;entryDx=0;entryDy=0;" edge="1" parent="1" source="utT9G9273KMaDu8NAlAD-1" target="utT9G9273KMaDu8NAlAD-5">
          <mxGeometry relative="1" as="geometry" />
        </mxCell>
        <mxCell id="utT9G9273KMaDu8NAlAD-1" value="inicio" style="ellipse;whiteSpace=wrap;html=1;" vertex="1" parent="1">
          <mxGeometry x="190" y="30" width="120" height="80" as="geometry" />
        </mxCell>
        <mxCell id="utT9G9273KMaDu8NAlAD-11" style="edgeStyle=orthogonalEdgeStyle;rounded=0;orthogonalLoop=1;jettySize=auto;html=1;" edge="1" parent="1" source="utT9G9273KMaDu8NAlAD-3" target="utT9G9273KMaDu8NAlAD-10">
          <mxGeometry relative="1" as="geometry" />
        </mxCell>
        <mxCell id="utT9G9273KMaDu8NAlAD-3" value="Encerrar = &quot;n&quot;" style="rounded=1;whiteSpace=wrap;html=1;" vertex="1" parent="1">
          <mxGeometry x="200" y="260" width="120" height="60" as="geometry" />
        </mxCell>
        <mxCell id="utT9G9273KMaDu8NAlAD-9" style="edgeStyle=orthogonalEdgeStyle;rounded=0;orthogonalLoop=1;jettySize=auto;html=1;entryX=1;entryY=0.5;entryDx=0;entryDy=0;" edge="1" parent="1" source="utT9G9273KMaDu8NAlAD-4" target="utT9G9273KMaDu8NAlAD-3">
          <mxGeometry relative="1" as="geometry">
            <mxPoint x="320" y="290" as="targetPoint" />
            <Array as="points">
              <mxPoint x="435" y="290" />
            </Array>
          </mxGeometry>
        </mxCell>
        <mxCell id="utT9G9273KMaDu8NAlAD-4" value="Saldo inicial: &lt;br&gt;&quot;+ saldo&quot;" style="shape=step;perimeter=stepPerimeter;whiteSpace=wrap;html=1;fixedSize=1;direction=west;" vertex="1" parent="1">
          <mxGeometry x="370" y="140" width="130" height="80" as="geometry" />
        </mxCell>
        <mxCell id="utT9G9273KMaDu8NAlAD-6" value="" style="edgeStyle=orthogonalEdgeStyle;rounded=0;orthogonalLoop=1;jettySize=auto;html=1;" edge="1" parent="1" source="utT9G9273KMaDu8NAlAD-5" target="utT9G9273KMaDu8NAlAD-4">
          <mxGeometry relative="1" as="geometry" />
        </mxCell>
        <mxCell id="utT9G9273KMaDu8NAlAD-5" value="Saldo" style="shape=parallelogram;perimeter=parallelogramPerimeter;whiteSpace=wrap;html=1;fixedSize=1;" vertex="1" parent="1">
          <mxGeometry x="190" y="150" width="120" height="60" as="geometry" />
        </mxCell>
        <mxCell id="utT9G9273KMaDu8NAlAD-16" style="edgeStyle=orthogonalEdgeStyle;rounded=0;orthogonalLoop=1;jettySize=auto;html=1;entryX=0.5;entryY=0;entryDx=0;entryDy=0;" edge="1" parent="1" source="utT9G9273KMaDu8NAlAD-10" target="utT9G9273KMaDu8NAlAD-15">
          <mxGeometry relative="1" as="geometry">
            <mxPoint x="260" y="470" as="targetPoint" />
            <Array as="points" />
          </mxGeometry>
        </mxCell>
        <mxCell id="utT9G9273KMaDu8NAlAD-18" style="edgeStyle=orthogonalEdgeStyle;rounded=0;orthogonalLoop=1;jettySize=auto;html=1;entryX=0;entryY=0.5;entryDx=0;entryDy=0;" edge="1" parent="1" source="utT9G9273KMaDu8NAlAD-10" target="utT9G9273KMaDu8NAlAD-59">
          <mxGeometry relative="1" as="geometry">
            <mxPoint x="90" y="1180" as="targetPoint" />
            <Array as="points">
              <mxPoint x="70" y="400" />
              <mxPoint x="70" y="1190" />
            </Array>
          </mxGeometry>
        </mxCell>
        <mxCell id="utT9G9273KMaDu8NAlAD-67" style="edgeStyle=orthogonalEdgeStyle;rounded=0;orthogonalLoop=1;jettySize=auto;html=1;entryX=1;entryY=0.5;entryDx=0;entryDy=0;" edge="1" parent="1" source="utT9G9273KMaDu8NAlAD-10" target="utT9G9273KMaDu8NAlAD-61">
          <mxGeometry relative="1" as="geometry">
            <mxPoint x="710" y="1390" as="targetPoint" />
            <Array as="points">
              <mxPoint x="711" y="400" />
              <mxPoint x="711" y="1380" />
            </Array>
          </mxGeometry>
        </mxCell>
        <mxCell id="utT9G9273KMaDu8NAlAD-10" value="Encerrar = &quot;n&quot;" style="rhombus;whiteSpace=wrap;html=1;" vertex="1" parent="1">
          <mxGeometry x="210" y="350" width="100" height="100" as="geometry" />
        </mxCell>
        <mxCell id="utT9G9273KMaDu8NAlAD-12" value="&lt;font style=&quot;font-size: 22px;&quot;&gt;F&lt;/font&gt;" style="text;html=1;align=center;verticalAlign=middle;resizable=0;points=[];autosize=1;strokeColor=none;fillColor=none;" vertex="1" parent="1">
          <mxGeometry x="430" y="340" width="40" height="40" as="geometry" />
        </mxCell>
        <mxCell id="utT9G9273KMaDu8NAlAD-13" value="&lt;font style=&quot;font-size: 22px;&quot;&gt;V&lt;/font&gt;" style="text;html=1;align=center;verticalAlign=middle;resizable=0;points=[];autosize=1;strokeColor=none;fillColor=none;" vertex="1" parent="1">
          <mxGeometry x="140" y="470" width="40" height="40" as="geometry" />
        </mxCell>
        <mxCell id="utT9G9273KMaDu8NAlAD-20" style="edgeStyle=orthogonalEdgeStyle;rounded=0;orthogonalLoop=1;jettySize=auto;html=1;" edge="1" parent="1" source="utT9G9273KMaDu8NAlAD-15">
          <mxGeometry relative="1" as="geometry">
            <mxPoint x="260" y="580" as="targetPoint" />
          </mxGeometry>
        </mxCell>
        <mxCell id="utT9G9273KMaDu8NAlAD-15" value="Tipo de entrada" style="shape=parallelogram;perimeter=parallelogramPerimeter;whiteSpace=wrap;html=1;fixedSize=1;" vertex="1" parent="1">
          <mxGeometry x="200" y="480" width="120" height="60" as="geometry" />
        </mxCell>
        <mxCell id="utT9G9273KMaDu8NAlAD-22" style="edgeStyle=orthogonalEdgeStyle;rounded=0;orthogonalLoop=1;jettySize=auto;html=1;" edge="1" parent="1" source="utT9G9273KMaDu8NAlAD-21">
          <mxGeometry relative="1" as="geometry">
            <mxPoint x="260" y="680" as="targetPoint" />
          </mxGeometry>
        </mxCell>
        <mxCell id="utT9G9273KMaDu8NAlAD-21" value="Quantidade" style="shape=parallelogram;perimeter=parallelogramPerimeter;whiteSpace=wrap;html=1;fixedSize=1;" vertex="1" parent="1">
          <mxGeometry x="200" y="580" width="120" height="60" as="geometry" />
        </mxCell>
        <mxCell id="utT9G9273KMaDu8NAlAD-26" style="edgeStyle=orthogonalEdgeStyle;rounded=0;orthogonalLoop=1;jettySize=auto;html=1;" edge="1" parent="1" source="utT9G9273KMaDu8NAlAD-24">
          <mxGeometry relative="1" as="geometry">
            <mxPoint x="260" y="800" as="targetPoint" />
          </mxGeometry>
        </mxCell>
        <mxCell id="utT9G9273KMaDu8NAlAD-31" style="edgeStyle=orthogonalEdgeStyle;rounded=0;orthogonalLoop=1;jettySize=auto;html=1;" edge="1" parent="1" source="utT9G9273KMaDu8NAlAD-24" target="utT9G9273KMaDu8NAlAD-30">
          <mxGeometry relative="1" as="geometry" />
        </mxCell>
        <mxCell id="utT9G9273KMaDu8NAlAD-24" value="Tipo de entrada= 1" style="rhombus;whiteSpace=wrap;html=1;" vertex="1" parent="1">
          <mxGeometry x="210" y="680" width="90" height="90" as="geometry" />
        </mxCell>
        <mxCell id="utT9G9273KMaDu8NAlAD-25" value="&lt;font style=&quot;font-size: 22px;&quot;&gt;F&lt;/font&gt;" style="text;html=1;align=center;verticalAlign=middle;resizable=0;points=[];autosize=1;strokeColor=none;fillColor=none;" vertex="1" parent="1">
          <mxGeometry x="180" y="770" width="40" height="40" as="geometry" />
        </mxCell>
        <mxCell id="utT9G9273KMaDu8NAlAD-40" style="edgeStyle=orthogonalEdgeStyle;rounded=0;orthogonalLoop=1;jettySize=auto;html=1;entryX=0;entryY=0.5;entryDx=0;entryDy=0;" edge="1" parent="1" source="utT9G9273KMaDu8NAlAD-27" target="utT9G9273KMaDu8NAlAD-37">
          <mxGeometry relative="1" as="geometry" />
        </mxCell>
        <mxCell id="utT9G9273KMaDu8NAlAD-53" style="edgeStyle=orthogonalEdgeStyle;rounded=0;orthogonalLoop=1;jettySize=auto;html=1;" edge="1" parent="1" source="utT9G9273KMaDu8NAlAD-27">
          <mxGeometry relative="1" as="geometry">
            <mxPoint x="255" y="1060" as="targetPoint" />
          </mxGeometry>
        </mxCell>
        <mxCell id="utT9G9273KMaDu8NAlAD-27" value="Tipo de entrada= 2" style="rhombus;whiteSpace=wrap;html=1;" vertex="1" parent="1">
          <mxGeometry x="210" y="800" width="90" height="90" as="geometry" />
        </mxCell>
        <mxCell id="utT9G9273KMaDu8NAlAD-30" value="Saldo = saldo + quantidade" style="shape=parallelogram;perimeter=parallelogramPerimeter;whiteSpace=wrap;html=1;fixedSize=1;" vertex="1" parent="1">
          <mxGeometry x="330" y="695" width="120" height="60" as="geometry" />
        </mxCell>
        <mxCell id="utT9G9273KMaDu8NAlAD-33" style="edgeStyle=orthogonalEdgeStyle;rounded=0;orthogonalLoop=1;jettySize=auto;html=1;entryX=1;entryY=0.5;entryDx=0;entryDy=0;" edge="1" parent="1" source="utT9G9273KMaDu8NAlAD-32" target="utT9G9273KMaDu8NAlAD-30">
          <mxGeometry relative="1" as="geometry" />
        </mxCell>
        <mxCell id="utT9G9273KMaDu8NAlAD-34" style="edgeStyle=orthogonalEdgeStyle;rounded=0;orthogonalLoop=1;jettySize=auto;html=1;" edge="1" parent="1" source="utT9G9273KMaDu8NAlAD-32">
          <mxGeometry relative="1" as="geometry">
            <mxPoint x="280" y="790" as="targetPoint" />
            <Array as="points">
              <mxPoint x="555" y="790" />
              <mxPoint x="461" y="790" />
            </Array>
          </mxGeometry>
        </mxCell>
        <mxCell id="utT9G9273KMaDu8NAlAD-32" value="&quot;entrada: &quot;+ quantidade" style="shape=step;perimeter=stepPerimeter;whiteSpace=wrap;html=1;fixedSize=1;direction=west;" vertex="1" parent="1">
          <mxGeometry x="500" y="695" width="110" height="60" as="geometry" />
        </mxCell>
        <mxCell id="utT9G9273KMaDu8NAlAD-52" value="" style="edgeStyle=orthogonalEdgeStyle;rounded=0;orthogonalLoop=1;jettySize=auto;html=1;" edge="1" parent="1" source="utT9G9273KMaDu8NAlAD-37" target="utT9G9273KMaDu8NAlAD-51">
          <mxGeometry relative="1" as="geometry" />
        </mxCell>
        <mxCell id="utT9G9273KMaDu8NAlAD-37" value="saldo &amp;gt;=&lt;br&gt;quantidade" style="rhombus;whiteSpace=wrap;html=1;" vertex="1" parent="1">
          <mxGeometry x="330" y="805" width="90" height="85" as="geometry" />
        </mxCell>
        <mxCell id="utT9G9273KMaDu8NAlAD-49" style="edgeStyle=orthogonalEdgeStyle;rounded=0;orthogonalLoop=1;jettySize=auto;html=1;entryX=0.5;entryY=1;entryDx=0;entryDy=0;" edge="1" parent="1" source="utT9G9273KMaDu8NAlAD-41" target="utT9G9273KMaDu8NAlAD-43">
          <mxGeometry relative="1" as="geometry" />
        </mxCell>
        <mxCell id="utT9G9273KMaDu8NAlAD-41" value="Saldo = saldo -&lt;br&gt;quantidade" style="shape=parallelogram;perimeter=parallelogramPerimeter;whiteSpace=wrap;html=1;fixedSize=1;" vertex="1" parent="1">
          <mxGeometry x="440" y="817.5" width="120" height="60" as="geometry" />
        </mxCell>
        <mxCell id="utT9G9273KMaDu8NAlAD-42" value="" style="edgeStyle=orthogonalEdgeStyle;rounded=0;orthogonalLoop=1;jettySize=auto;html=1;" edge="1" parent="1" source="utT9G9273KMaDu8NAlAD-37" target="utT9G9273KMaDu8NAlAD-41">
          <mxGeometry relative="1" as="geometry" />
        </mxCell>
        <mxCell id="utT9G9273KMaDu8NAlAD-56" style="edgeStyle=orthogonalEdgeStyle;rounded=0;orthogonalLoop=1;jettySize=auto;html=1;" edge="1" parent="1" source="utT9G9273KMaDu8NAlAD-43">
          <mxGeometry relative="1" as="geometry">
            <mxPoint x="270" y="1030" as="targetPoint" />
            <Array as="points">
              <mxPoint x="500" y="1030" />
              <mxPoint x="281" y="1030" />
            </Array>
          </mxGeometry>
        </mxCell>
        <mxCell id="utT9G9273KMaDu8NAlAD-43" value="&quot;SaÃ­da&quot; +&lt;br&gt;quantidade" style="shape=step;perimeter=stepPerimeter;whiteSpace=wrap;html=1;fixedSize=1;direction=west;" vertex="1" parent="1">
          <mxGeometry x="445" y="910" width="110" height="60" as="geometry" />
        </mxCell>
        <mxCell id="utT9G9273KMaDu8NAlAD-55" style="edgeStyle=orthogonalEdgeStyle;rounded=0;orthogonalLoop=1;jettySize=auto;html=1;" edge="1" parent="1" source="utT9G9273KMaDu8NAlAD-51">
          <mxGeometry relative="1" as="geometry">
            <mxPoint x="280" y="1000" as="targetPoint" />
            <Array as="points">
              <mxPoint x="375" y="1000" />
              <mxPoint x="281" y="1000" />
            </Array>
          </mxGeometry>
        </mxCell>
        <mxCell id="utT9G9273KMaDu8NAlAD-51" value="&quot;Saldo &lt;br&gt;insuficiente&quot;" style="shape=step;perimeter=stepPerimeter;whiteSpace=wrap;html=1;fixedSize=1;direction=west;" vertex="1" parent="1">
          <mxGeometry x="320" y="910" width="110" height="60" as="geometry" />
        </mxCell>
        <mxCell id="utT9G9273KMaDu8NAlAD-58" style="edgeStyle=orthogonalEdgeStyle;rounded=0;orthogonalLoop=1;jettySize=auto;html=1;" edge="1" parent="1" source="utT9G9273KMaDu8NAlAD-57">
          <mxGeometry relative="1" as="geometry">
            <mxPoint x="255" y="1160" as="targetPoint" />
          </mxGeometry>
        </mxCell>
        <mxCell id="utT9G9273KMaDu8NAlAD-57" value="Saldo" style="shape=step;perimeter=stepPerimeter;whiteSpace=wrap;html=1;fixedSize=1;direction=west;" vertex="1" parent="1">
          <mxGeometry x="200" y="1060" width="110" height="60" as="geometry" />
        </mxCell>
        <mxCell id="utT9G9273KMaDu8NAlAD-59" value="encerrar ?&lt;br&gt;(s/n)" style="shape=parallelogram;perimeter=parallelogramPerimeter;whiteSpace=wrap;html=1;fixedSize=1;" vertex="1" parent="1">
          <mxGeometry x="195" y="1160" width="120" height="60" as="geometry" />
        </mxCell>
        <mxCell id="utT9G9273KMaDu8NAlAD-65" style="edgeStyle=orthogonalEdgeStyle;rounded=0;orthogonalLoop=1;jettySize=auto;html=1;entryX=0.5;entryY=0;entryDx=0;entryDy=0;" edge="1" parent="1" source="utT9G9273KMaDu8NAlAD-60" target="utT9G9273KMaDu8NAlAD-61">
          <mxGeometry relative="1" as="geometry" />
        </mxCell>
        <mxCell id="utT9G9273KMaDu8NAlAD-60" value="&quot;Sistema &lt;br&gt;encerrado&quot;" style="shape=step;perimeter=stepPerimeter;whiteSpace=wrap;html=1;fixedSize=1;direction=west;" vertex="1" parent="1">
          <mxGeometry x="195" y="1270" width="110" height="60" as="geometry" />
        </mxCell>
        <mxCell id="utT9G9273KMaDu8NAlAD-61" value="FIM." style="ellipse;whiteSpace=wrap;html=1;" vertex="1" parent="1">
          <mxGeometry x="195" y="1360" width="115" height="40" as="geometry" />
        </mxCell>
        <mxCell id="utT9G9273KMaDu8NAlAD-68" value="&lt;font style=&quot;font-size: 22px;&quot;&gt;F&lt;/font&gt;" style="text;html=1;align=center;verticalAlign=middle;resizable=0;points=[];autosize=1;strokeColor=none;fillColor=none;" vertex="1" parent="1">
          <mxGeometry x="180" y="910" width="40" height="40" as="geometry" />
        </mxCell>
        <mxCell id="utT9G9273KMaDu8NAlAD-69" value="&lt;font style=&quot;font-size: 22px;&quot;&gt;F&lt;/font&gt;" style="text;html=1;align=center;verticalAlign=middle;resizable=0;points=[];autosize=1;strokeColor=none;fillColor=none;" vertex="1" parent="1">
          <mxGeometry x="310" y="870" width="40" height="40" as="geometry" />
        </mxCell>
        <mxCell id="utT9G9273KMaDu8NAlAD-70" value="&lt;font style=&quot;font-size: 22px;&quot;&gt;V&lt;/font&gt;" style="text;html=1;align=center;verticalAlign=middle;resizable=0;points=[];autosize=1;strokeColor=none;fillColor=none;" vertex="1" parent="1">
          <mxGeometry x="300" y="670" width="40" height="40" as="geometry" />
        </mxCell>
        <mxCell id="utT9G9273KMaDu8NAlAD-71" value="&lt;font style=&quot;font-size: 22px;&quot;&gt;V&lt;/font&gt;" style="text;html=1;align=center;verticalAlign=middle;resizable=0;points=[];autosize=1;strokeColor=none;fillColor=none;" vertex="1" parent="1">
          <mxGeometry x="415" y="790" width="40" height="40" as="geometry" />
        </mxCell>
        <mxCell id="utT9G9273KMaDu8NAlAD-72" value="&lt;font style=&quot;font-size: 22px;&quot;&gt;V&lt;/font&gt;" style="text;html=1;align=center;verticalAlign=middle;resizable=0;points=[];autosize=1;strokeColor=none;fillColor=none;" vertex="1" parent="1">
          <mxGeometry x="290" y="800" width="40" height="40" as="geometry" />
        </mxCell>
      </root>
    </mxGraphModel>
  </diagram>
</mxfile>
